<?xml version="1.0" encoding="UTF-8"?>
<svg version="1.1" xmlns="http://www.w3.org/2000/svg" width="2078" height="1484">
<path d="M0 0 C1.101074 -0.00115384 2.202148 -0.00230769 3.33658788 -0.0034965 C7.02797285 -0.00614442 10.71931425 -0.001656 14.41069698 0.00279331 C17.08308664 0.00235724 19.75547349 0.00152383 22.42786258 0.00020415 C28.23895006 -0.00186606 34.05002727 -0.00023185 39.86111355 0.00384235 C48.50195183 0.00988366 57.14278365 0.01017757 65.78362366 0.00930037 C80.31971266 0.00798714 94.85579712 0.0113253 109.3918848 0.01731777 C123.78366334 0.02323554 138.17543999 0.02708387 152.56721973 0.02817059 C153.4621811 0.02823933 154.35714246 0.02830806 155.27922386 0.02837889 C159.82431225 0.02871722 164.36940064 0.02901861 168.91448902 0.02930576 C201.10422056 0.03140597 233.29394963 0.03814275 265.48367977 0.04760838 C296.75483849 0.05679327 328.02599653 0.06387666 359.29715633 0.06811619 C360.74312091 0.06831348 360.74312091 0.06831348 362.21829689 0.06851475 C371.89897666 0.06983328 381.57965643 0.07110909 391.26033621 0.07235361 C410.98085649 0.0748898 430.70137672 0.07771105 450.42189693 0.08070469 C451.32860717 0.08084198 452.2353174 0.08097927 453.16950371 0.08112072 C513.71425288 0.09032081 574.25900067 0.10616594 634.80374813 0.12304783 C634.33376874 2.02166005 633.86250764 3.91995502 633.39071751 5.8181181 C633.1284237 6.87526551 632.86612989 7.93241293 632.59588778 9.02159512 C631.49567588 13.32923858 630.24524501 17.58274385 628.95755672 21.8374033 C628.68751072 22.7378487 628.41746471 23.63829411 628.1392355 24.56602573 C627.24616105 27.54155313 626.34917753 30.51588675 625.45218563 33.49023533 C624.8074984 35.6354348 624.16306553 37.78071072 623.51886654 39.92605686 C622.13536523 44.53159141 620.75014616 49.13660439 619.36356258 53.74121189 C617.14231523 61.11766732 614.92488905 68.49526806 612.70804501 75.87304783 C610.39297626 83.57700398 608.07764039 91.28087921 605.76084042 98.98431492 C600.64654462 115.98963743 595.53819402 132.99673408 590.43656063 150.00586033 C590.09974144 151.12882385 589.76292225 152.25178738 589.41589642 153.4087801 C587.72250333 159.05473545 586.02923984 164.70072965 584.33603573 170.34674168 C581.25372753 180.62451006 578.17025468 190.90192906 575.08688641 201.17937946 C573.36746087 206.91058842 571.64810813 212.64181921 569.92874813 218.37304783 C569.24124848 220.6647146 568.55374848 222.95638127 567.86624813 225.24804783 C567.52593563 226.38242283 567.18562313 227.51679783 566.83499813 228.68554783 C532.80374813 342.12304783 498.77249813 455.56054783 299.74124813 1118.99804783 C299.4009306 1120.13243982 299.06061306 1121.26683182 298.70998287 1122.43559933 C298.0225342 1124.72709447 297.33508506 1127.01858948 296.64763546 1129.31008434 C294.92809629 1135.04187414 293.20856526 1140.77366637 291.48905087 1146.5054636 C288.40473297 1156.78664293 285.32036076 1167.06780594 282.23567867 1177.348876 C280.52916108 1183.03660855 278.82269196 1188.72435564 277.11624813 1194.41211033 C276.7778793 1195.53992546 276.43951046 1196.66774059 276.09088802 1197.82973194 C272.19947782 1210.80044894 268.30918678 1223.77150065 264.42093563 1236.74316502 C264.05563936 1237.96182412 263.69034309 1239.18048323 263.31397724 1240.4360714 C261.8393386 1245.35567833 260.36472843 1250.27529378 258.89031506 1255.19496822 C254.96547775 1268.29094217 251.03821672 1281.38617558 247.10208797 1294.47876072 C246.08971828 1297.84664098 245.07738366 1301.21453177 244.06508923 1304.58243465 C243.41008133 1306.76161388 242.75500951 1308.9407739 242.09987164 1311.11991405 C238.35006443 1323.59532764 234.62610843 1336.07762652 230.95529079 1348.57650852 C229.62405438 1353.10111046 228.28003468 1357.62192986 226.93729305 1362.1431284 C225.98899384 1365.35640733 225.06073479 1368.57493681 224.13382626 1371.79443455 C217.26120399 1395.1576744 206.63918565 1415.61590205 190.80374813 1434.12304783 C189.78087704 1435.33154392 189.78087704 1435.33154392 188.73734188 1436.56445408 C165.05330323 1463.95636571 128.68602224 1481.19411077 92.80374813 1484.12304783 C89.07094524 1484.25610754 85.34237071 1484.25578357 81.60749626 1484.24609566 C79.95588526 1484.24782642 79.95588526 1484.24782642 78.27090839 1484.24959216 C74.57952341 1484.25224008 70.88818201 1484.24775166 67.19679928 1484.24330235 C64.52440962 1484.24373842 61.85202277 1484.24457183 59.17963368 1484.24589151 C53.36854621 1484.24796172 47.55746899 1484.2463275 41.74638271 1484.2422533 C33.10554444 1484.236212 24.46471261 1484.23591809 15.8238726 1484.23679529 C1.2877836 1484.23810851 -13.24830086 1484.23477036 -27.78438854 1484.22877789 C-42.17616708 1484.22286011 -56.56794373 1484.21901179 -70.95972347 1484.21792507 C-72.30216552 1484.21782196 -72.30216552 1484.21782196 -73.6717276 1484.21771677 C-78.21681599 1484.21737843 -82.76190437 1484.21707705 -87.30699276 1484.21678989 C-119.4967243 1484.21468969 -151.68645336 1484.20795291 -183.87618351 1484.19848728 C-215.14734223 1484.18930238 -246.41850027 1484.182219 -277.68966007 1484.17797947 C-279.13562465 1484.17778218 -279.13562465 1484.17778218 -280.61080063 1484.17758091 C-290.2914804 1484.17626238 -299.97216017 1484.17498657 -309.65283995 1484.17374205 C-329.37336023 1484.17120586 -349.09388046 1484.16838461 -368.81440067 1484.16539097 C-369.72111091 1484.16525368 -370.62782114 1484.16511639 -371.56200744 1484.16497494 C-432.10675662 1484.15577485 -492.65150441 1484.13992972 -553.19625187 1484.12304783 C-552.72627248 1482.22443561 -552.25501137 1480.32614064 -551.78322124 1478.42797756 C-551.52092744 1477.37083014 -551.25863363 1476.31368273 -550.98839152 1475.22450054 C-549.88817962 1470.91685708 -548.63774875 1466.66335181 -547.35006046 1462.40869236 C-547.08001446 1461.50824696 -546.80996845 1460.60780155 -546.53173923 1459.68006992 C-545.63866478 1456.70454252 -544.74168127 1453.7302089 -543.84468937 1450.75586033 C-543.20000214 1448.61066086 -542.55556927 1446.46538493 -541.91137028 1444.3200388 C-540.52786896 1439.71450425 -539.1426499 1435.10949127 -537.75606632 1430.50488377 C-535.53481897 1423.12842833 -533.31739279 1415.75082759 -531.10054874 1408.37304783 C-528.78548 1400.66909168 -526.47014412 1392.96521644 -524.15334415 1385.26178074 C-519.03904836 1368.25645823 -513.93069776 1351.24936158 -508.82906437 1334.24023533 C-508.49224518 1333.1172718 -508.15542599 1331.99430828 -507.80840015 1330.83731556 C-506.11500707 1325.19136021 -504.42174358 1319.545366 -502.72853947 1313.89935398 C-499.64623126 1303.62158559 -496.56275842 1293.34416659 -493.47939014 1283.06671619 C-491.75996461 1277.33550724 -490.04061187 1271.60427645 -488.32125187 1265.87304783 C-487.63375222 1263.58138106 -486.94625222 1261.28971439 -486.25875187 1258.99804783 C-485.91843937 1257.86367283 -485.57812687 1256.72929783 -485.22750187 1255.56054783 C-451.19625187 1142.12304783 -417.16500187 1028.68554783 -218.13375187 365.24804783 C-217.79343402 364.11365489 -217.45311617 362.97926195 -217.10248566 361.81049347 C-216.41503993 359.51900793 -215.72759397 357.22752246 -215.04014778 354.93603706 C-213.32056546 349.20409971 -211.60098721 343.47216114 -209.88141727 337.74022007 C-206.79761041 327.46080404 -203.71377646 317.18139614 -200.62978745 306.90203476 C-198.92405729 301.21659731 -197.21835138 295.53115259 -195.51265812 289.84570408 C-195.17441076 288.71825338 -194.83616341 287.59080269 -194.48766613 286.42918682 C-189.84888306 270.96696432 -185.21121184 255.50440871 -180.57439518 240.04159641 C-177.99463126 231.43864337 -175.41454945 222.83578568 -172.83440304 214.23294735 C-171.09505617 208.43345343 -169.35587461 202.63391007 -167.61715031 196.83422947 C-167.12947587 195.20761922 -167.12947587 195.20761922 -166.63194942 193.54814816 C-165.98370614 191.38595927 -165.33549862 189.22375967 -164.68732738 187.06154919 C-163.10557282 181.78606363 -161.52215506 176.51108726 -159.93523502 171.23715305 C-159.30718905 169.14948961 -158.67918825 167.06181258 -158.05123234 164.97412205 C-157.73997347 163.93936426 -157.4287146 162.90460648 -157.10802364 161.83849239 C-155.05828435 155.01575338 -153.02761264 148.18755816 -151.00672531 141.35622025 C-149.57894462 136.5349382 -148.14310725 131.71607462 -146.70618725 126.89750957 C-146.02640137 124.61077638 -145.35017701 122.32298074 -144.6779089 120.03402615 C-137.89598656 96.95233836 -129.55826854 74.94454227 -114.19625187 56.12304783 C-113.73170597 55.55167088 -113.26716007 54.98029392 -112.78853703 54.39160252 C-98.30702318 36.6925057 -80.9123151 22.90750766 -60.19625187 13.12304783 C-58.51789249 12.3264072 -58.51789249 12.3264072 -56.80562687 11.51367283 C-38.95475475 3.7489437 -19.40265495 -0.05032864 0 0 Z " fill="#572BD6" transform="translate(553.1962518692017,-0.1230478286743164)"/>
<path d="M0 0 C1.101074 -0.00115384 2.202148 -0.00230769 3.33658788 -0.0034965 C7.02797285 -0.00614442 10.71931425 -0.001656 14.41069698 0.00279331 C17.08308664 0.00235724 19.75547349 0.00152383 22.42786258 0.00020415 C28.23895006 -0.00186606 34.05002727 -0.00023185 39.86111355 0.00384235 C48.50195183 0.00988366 57.14278365 0.01017757 65.78362366 0.00930037 C80.31971266 0.00798714 94.85579712 0.0113253 109.3918848 0.01731777 C123.78366334 0.02323554 138.17543999 0.02708387 152.56721973 0.02817059 C153.4621811 0.02823933 154.35714246 0.02830806 155.27922386 0.02837889 C159.82431225 0.02871722 164.36940064 0.02901861 168.91448902 0.02930576 C201.10422056 0.03140597 233.29394963 0.03814275 265.48367977 0.04760838 C296.75483849 0.05679327 328.02599653 0.06387666 359.29715633 0.06811619 C360.74312091 0.06831348 360.74312091 0.06831348 362.21829689 0.06851475 C371.89897666 0.06983328 381.57965643 0.07110909 391.26033621 0.07235361 C410.98085649 0.0748898 430.70137672 0.07771105 450.42189693 0.08070469 C451.32860717 0.08084198 452.2353174 0.08097927 453.16950371 0.08112072 C513.71425288 0.09032081 574.25900067 0.10616594 634.80374813 0.12304783 C634.33376874 2.02166005 633.86250764 3.91995502 633.39071751 5.8181181 C633.1284237 6.87526551 632.86612989 7.93241293 632.59588778 9.02159512 C631.49567588 13.32923858 630.24524501 17.58274385 628.95755672 21.8374033 C628.68751072 22.7378487 628.41746471 23.63829411 628.1392355 24.56602573 C627.24616105 27.54155313 626.34917753 30.51588675 625.45218563 33.49023533 C624.8074984 35.6354348 624.16306553 37.78071072 623.51886654 39.92605686 C622.13536523 44.53159141 620.75014616 49.13660439 619.36356258 53.74121189 C617.14231523 61.11766732 614.92488905 68.49526806 612.70804501 75.87304783 C610.39297626 83.57700398 608.07764039 91.28087921 605.76084042 98.98431492 C600.64654462 115.98963743 595.53819402 132.99673408 590.43656063 150.00586033 C590.09974144 151.12882385 589.76292225 152.25178738 589.41589642 153.4087801 C587.72250333 159.05473545 586.02923984 164.70072965 584.33603573 170.34674168 C581.25372753 180.62451006 578.17025468 190.90192906 575.08688641 201.17937946 C573.36746087 206.91058842 571.64810813 212.64181921 569.92874813 218.37304783 C569.24124848 220.6647146 568.55374848 222.95638127 567.86624813 225.24804783 C567.52593563 226.38242283 567.18562313 227.51679783 566.83499813 228.68554783 C532.80374813 342.12304783 498.77249813 455.56054783 464.74124813 568.99804783 C464.23076711 570.69965281 464.23076711 570.69965281 463.70997334 572.43563366 C463.02255832 574.72701492 462.33514097 577.01839549 461.64772129 579.30977535 C459.92765188 585.04330293 458.20762316 590.77684272 456.48767757 596.51040745 C453.4097251 606.77084587 450.33150911 617.03120477 447.25172901 627.29109478 C445.5527179 632.95116345 443.85395104 638.6113054 442.15531063 644.27148533 C441.81815659 645.39492722 441.48100254 646.5183691 441.13363171 647.67585468 C436.20179 664.11119544 431.28303506 680.55042312 426.37135196 696.99179721 C423.90826191 705.23617323 421.44201568 713.47960545 418.97558117 721.72298145 C416.81404641 728.94833869 414.65651639 736.17487521 412.50208759 743.40235424 C411.16712169 747.87716037 409.82822839 752.35078459 408.488307 756.82410908 C407.87428045 758.87690002 407.26183312 760.9301642 406.6512022 762.98396778 C395.63134315 800.03798702 395.63134315 800.03798702 388.99124813 811.99804783 C388.57093319 812.77285496 388.15061825 813.54766209 387.71756649 814.34594822 C380.91366329 826.61829083 372.51395124 837.05320757 362.80374813 847.12304783 C362.08831844 847.90164158 361.37288876 848.68023533 360.63577938 849.48242283 C336.54416304 874.97524012 298.91232358 890.01340442 264.15195672 891.21469135 C261.28315241 891.24919583 258.41592066 891.25360464 255.54691792 891.24609566 C254.45144357 891.2472495 253.35596922 891.24840335 252.22729868 891.24959216 C248.56098377 891.25223647 244.89471288 891.24775467 241.22840023 891.24330235 C238.57164671 891.24373849 235.91489602 891.24457207 233.25814307 891.24589151 C227.48431783 891.24796048 221.71050292 891.24632964 215.93667889 891.2422533 C207.35126496 891.23620886 198.76585752 891.23591838 190.18044185 891.23679529 C175.73718096 891.23810813 161.29392465 891.23477181 146.85066509 891.22877789 C132.55181893 891.22285911 118.25297469 891.21901158 103.95412731 891.21792507 C103.06478008 891.21785633 102.17543284 891.21778759 101.25913569 891.21771677 C96.74251644 891.21737843 92.22589719 891.21707705 87.70927794 891.21678989 C55.72530447 891.21468997 23.74133348 891.20795396 -8.24263859 891.19848728 C-39.31295095 891.18930165 -70.38326264 891.18221862 -101.45357609 891.17797947 C-102.89037904 891.17778218 -102.89037904 891.17778218 -104.35620831 891.17758091 C-113.97559486 891.17626238 -123.59498141 891.17498656 -133.21436797 891.17374205 C-152.80984094 891.17120589 -172.40531387 891.16838464 -192.00078678 891.16539097 C-192.90173777 891.16525368 -193.80268876 891.16511639 -194.73094129 891.16497494 C-254.88604586 891.15577562 -315.04114903 891.13993058 -375.19625187 891.12304783 C-374.56145524 888.56504407 -373.92546223 886.00734766 -373.28878498 883.44981194 C-373.11040895 882.73049375 -372.93203292 882.01117556 -372.74825156 881.27005985 C-371.4082718 875.89308631 -369.93598665 870.57283518 -368.31246281 865.27417088 C-368.05043788 864.40739342 -367.78841295 863.54061596 -367.51844788 862.64757252 C-366.65940737 859.80887561 -365.79500145 856.97184334 -364.93062687 854.13476658 C-364.30693926 852.0769038 -363.68364423 850.01892201 -363.06070805 847.96083164 C-361.72617759 843.55387577 -360.38946998 839.14758888 -359.05101871 834.74182224 C-355.79188945 824.01249096 -352.54553042 813.27929267 -349.29860973 802.54626179 C-348.54759144 800.06379374 -347.79644471 797.58136455 -347.04517269 795.09897327 C-339.39082004 769.80592158 -331.80564984 744.49245953 -324.24386311 719.1716013 C-321.58437839 710.26656376 -318.92365741 701.36189541 -316.26309109 692.45718098 C-315.59371332 690.21680457 -314.92436237 687.97642015 -314.25503826 685.73602772 C-306.44300353 659.58818248 -298.60286912 633.44878346 -290.75875187 607.31054783 C-290.0695507 605.01387699 -289.38035188 602.71720544 -288.69115543 600.42053318 C-285.93076441 591.22195826 -283.17022258 582.02342862 -280.40940189 572.82498264 C-275.58589554 556.75411098 -270.76363456 540.68286611 -265.94234562 524.61132908 C-265.60214956 523.47730341 -265.26195351 522.34327774 -264.91144848 521.17488766 C-263.19352974 515.44827255 -261.47563245 509.72165102 -259.75774479 503.99502659 C-256.66447314 493.68356011 -253.57101133 483.37215068 -250.47756481 473.06073666 C-248.75878613 467.33150936 -247.04001961 461.60227841 -245.32125187 455.87304783 C-244.63375193 453.58138114 -243.94625193 451.28971448 -243.25875187 448.99804783 C-242.91843937 447.86367283 -242.57812687 446.72929783 -242.22750187 445.56054783 C-230.19625187 405.45638116 -218.16500187 365.3522145 -206.13375187 325.24804783 C-205.62327085 323.54644331 -205.62327085 323.54644331 -205.10247707 321.81046295 C-204.41506136 319.51907872 -203.72764401 317.22769498 -203.04022503 314.93631172 C-201.32017207 309.20282784 -199.60014759 303.46933542 -197.88018131 297.73582554 C-194.80201974 287.47486916 -191.72367354 277.2139684 -188.64423275 266.95339584 C-186.94528316 261.29254164 -185.24650451 255.63163615 -183.54781437 249.97070408 C-183.21066032 248.84714071 -182.87350628 247.72357735 -182.52613544 246.56596661 C-177.59761984 230.14047141 -172.67825428 213.7122504 -167.7638557 197.28252709 C-165.30011719 189.04620602 -162.83416668 180.81054705 -160.36808491 172.57492733 C-158.20765983 165.35934872 -156.05003662 158.14294044 -153.89459133 150.9258728 C-152.5587403 146.45558061 -151.2201341 141.98611677 -149.88081074 137.51686382 C-149.26728086 135.4675426 -148.65485528 133.41789034 -148.04370594 131.36785793 C-144.97769544 121.08527522 -141.83095346 110.83677246 -138.46187687 100.64892673 C-138.17906298 99.78866099 -137.89624908 98.92839525 -137.60486507 98.04206085 C-135.37934567 91.39153122 -132.69663041 85.22015937 -129.32125187 79.06054783 C-128.80369328 78.09576511 -128.28613468 77.1309824 -127.75289249 76.13696384 C-123.80322323 68.9156356 -119.5310973 62.4108623 -114.19625187 56.12304783 C-113.23849934 54.95436772 -112.28151298 53.78505945 -111.32515812 52.61523533 C-97.3013321 35.65540328 -80.10062437 22.52413582 -60.19625187 13.12304783 C-58.51789249 12.3264072 -58.51789249 12.3264072 -56.80562687 11.51367283 C-38.95475475 3.7489437 -19.40265495 -0.05032864 0 0 Z " fill="#572BD6" transform="translate(1443.1962518692017,-0.1230478286743164)"/>
</svg>
